<?xml version="1.0" encoding="UTF-8"?><svg id="Layer_1" xmlns="http://www.w3.org/2000/svg" viewBox="0 0 561.6 459.3"><defs><style>.cls-1,.cls-2{stroke-width:0px;}.cls-2{fill:#f93228;}</style></defs><path class="cls-1" d="M0,229.97v-60.06c1.31-.39.7-1.5.8-2.28,2.38-18.75,3.86-37.62,8.46-56.04,1.62-6.51,1.92-13.34,4.83-19.53,2.25-4.79,7.47-6.78,12.28-4.73,1.42.6,2.91,1.08,4.36,1.61,10.77,3.94,21.53,7.88,32.31,11.8,9.69,3.53,19.17,7.64,29.08,10.55,6.06,3.61,12.99,5.05,19.47,7.6,4.92,1.93,9.84,3.95,14.83,5.75,11.08,3.99,22.2,7.86,33.24,11.94,7.89,2.91,15.64,6.21,23.53,9.12,10.93,4.02,21.97,7.72,32.89,11.76,12.38,4.58,24.64,9.46,37.01,14.06,11.27,4.19,22.71,7.92,33.89,12.33,10.06,3.97,20.48,6.99,30.2,11.85,4.26,2.13,8.92,3.46,13.41,5.12,6.92,2.57,13.85,5.11,20.78,7.66,6.67,2.46,13.38,4.8,20,7.38,9.75,3.8,19.57,7.42,29.51,10.71,1.62.8,3.17,1.85,4.88,2.36,10.77,3.24,21.05,7.81,31.62,11.58,12.24,4.37,24.05,9.98,36.02,15.09,6.71,2.86,7.58,5.23,4.34,11.4-.3.57-.44,1.22-.67,1.82-3.26,8.55-6.42,17.12-10.46,25.36-5.67,11.55-12.02,22.75-18.94,33.52-7.57,11.77-16.32,22.8-25.89,33.09-4.49,4.84-8.99,9.68-13.64,14.36-9.74,9.79-20.22,18.71-31.12,27.2-8.88,6.92-18.08,13.36-27.67,19.08-11.02,6.57-22.64,12.14-34.39,17.47-12.73,5.77-26.25,8.95-39.23,13.8-7.04,2.63-14.98,2.83-22.49,4.28-5.25,1.02-10.69.71-15.85,2.32h-4.69c-1.82-.8-3.64-.81-5.47,0h-6.25c-1.82-.81-3.64-.8-5.47,0h-6.25c-.32-1.05-1.23-.69-1.93-.79-5.66-.8-11.37-1.32-16.96-2.45-6.09-1.23-12.43-1.37-18.28-3.57-4.15-1.57-8.21-3.3-12.53-4.46-10.38-2.77-20.28-6.99-29.95-11.54-8.84-4.15-17.6-8.61-25.71-14.16-5.51-3.77-11.18-7.36-16.37-11.53-9.44-7.59-18.43-15.63-26.5-24.79-6.93-7.88-13.41-16.05-19.22-24.71-7.33-10.91-13.46-22.54-18.53-34.69-4.47-10.71-8.32-21.66-11.46-32.81-4.47-15.85-7.39-32.03-9.54-48.36-.68-5.16-.44-10.47-2.29-15.46ZM135.4,176.92c-14.68-.66-25.64,5.81-34.37,15.97-3.75,4.37-7.46,9.34-8.48,15.45-.37,2.22-.36,4.39,2.39,5.43,9.3,3.52,18.36,7.64,27.62,11.26,13.84,5.42,27.61,10.97,41.66,15.82,3.62,1.25,5.27.52,6.58-3.05,3.08-8.41,4.41-17.1,3.2-25.97-1.18-8.7-3.98-17.23-10.15-23.47-7.76-7.85-17.56-12.29-28.46-11.46ZM332.06,281.58c-.64-8.26-1.58-16.36-6.15-23.73-5.83-9.4-13.79-15.79-24.62-17.9-9.74-1.9-18.95.07-27.69,5.03-9.19,5.21-16.02,12.4-20.31,21.94-2.11,4.69-.59,7.72,4.43,9.12,5.25,1.46,10.27,3.7,15.17,5.82,15.66,6.79,31.91,12.12,47.34,19.43,4.67,2.21,7.87.91,9.25-4.01,1.43-5.1,2.78-10.27,2.58-15.69Z"/><path class="cls-2" d="M215.52,459.3c1.82-.8,3.64-.81,5.47,0h-5.47Z"/><path class="cls-2" d="M227.23,459.3c1.82-.81,3.64-.8,5.47,0h-5.47Z"/><path class="cls-2" d="M379.06,112.43c1.98,3.54,3.96,7.08,5.94,10.62-1.27.26-2.53.63-3.81.75-14.46,1.36-29,1.95-43.4,4.01-15.43,2.21-31.03,2.57-46.5,4.45-2.55.31-3.01,1.09-2.48,3.35,1.22,5.16,2.41,10.34,3.41,15.55.49,2.58,1.73,3.61,4.36,3.78,22.67,1.47,45.32,3.15,67.9,5.61,11.75,1.28,23.61,1,35.32,2.63,4.61,21.05,4.53,42.18,1.08,63.37-9.94-3.29-19.76-6.91-29.51-10.71-6.62-2.58-13.33-4.93-20-7.38-6.93-2.55-13.85-5.09-20.78-7.66-4.49-1.66-9.15-2.99-13.41-5.12-9.72-4.87-20.15-7.88-30.2-11.85-11.18-4.41-22.62-8.14-33.89-12.33-12.37-4.6-24.63-9.48-37.01-14.06-10.92-4.04-21.97-7.74-32.89-11.76-7.89-2.9-15.64-6.2-23.53-9.12-11.04-4.08-22.17-7.95-33.24-11.94-4.99-1.8-9.91-3.82-14.83-5.75-6.48-2.55-13.41-3.99-19.47-7.6,3.81-7.83,9.28-14.54,14.68-21.27,7.31-9.11,16.24-16.53,24.92-24.29,8.76-7.83,18.63-13.86,28.99-18.55,34.94-15.84,71.28-21.01,109.22-12.18,12.43,2.89,24.41,6.88,35.97,12.01,8.47,3.76,16.65,8.31,24.15,13.9,6.48,4.83,12.62,10.04,18.63,15.42-.98,1.19-2.44,1.41-3.79,1.75-6.55,1.62-12.64,4.57-18.94,6.86-13.48,4.89-26.84,10.11-40.38,14.84-1.58.55-3.36,1.06-2.87,3.41,1.34,6.46,1.66,13.09,3.58,19.46.46,1.52.85,2.13,2.57,1.87,14.76-2.17,29.58-3.95,44.37-5.89,15.28-2.01,30.57-3.95,45.83-6.17ZM277.3,123.54c-1.05-5.05-2.56-10.33-3.12-15.72-.37-3.57-1.5-3.21-3.99-2.2-8.62,3.51-17.46,6.51-26.03,10.07-7.88,3.27-8.31.55-4.86,10.47.21.61.37,1.24.59,1.85.42,1.21,1,1.84,2.56,1.64,11.19-1.48,22.4-2.84,33.61-4.22,1.06-.13,1.83-.32,1.24-1.9ZM276.57,134.02c-9.29.78-18.47,1.56-27.65,2.33-7,.58-7.52,1.41-4.53,7.9.7,1.51,1.89,2.8,2.6,4.3.77,1.63,1.94,2.24,3.65,2.29,10.13.33,20.19,1.47,30.26,2.56,1.92.21,2.94-.02,2.28-2.44-1.29-4.74-2.41-9.54-3.4-14.36-.41-2-1.06-3.18-3.19-2.59Z"/><path class="cls-2" d="M135.4,176.92c10.91-.83,20.7,3.61,28.46,11.46,6.17,6.24,8.96,14.76,10.15,23.47,1.21,8.87-.12,17.56-3.2,25.97-1.31,3.56-2.96,4.29-6.58,3.05-14.05-4.85-27.83-10.4-41.66-15.82-9.27-3.63-18.32-7.74-27.62-11.26-2.75-1.04-2.76-3.2-2.39-5.43,1.01-6.11,4.72-11.09,8.48-15.45,8.72-10.16,19.69-16.63,34.37-15.97ZM165.37,219.56c.36-21.32-13.42-35.22-32.86-34.03-10.63.65-18.62,6.13-25.11,14.17-1.38,1.71-2.74,3.46-3.87,5.34-.96,1.58-.62,2.6,1.46,3.41,11.06,4.33,21.91,9.2,33.1,13.21,7.78,2.79,15.53,5.67,23.2,8.73,2.48.99,3.12-.24,3.34-2.06.4-3.35.56-6.72.72-8.78Z"/><path class="cls-2" d="M332.06,281.58c.2,5.42-1.15,10.59-2.58,15.69-1.38,4.92-4.58,6.22-9.25,4.01-15.43-7.31-31.68-12.65-47.34-19.43-4.9-2.13-9.92-4.36-15.17-5.82-5.02-1.4-6.54-4.43-4.43-9.12,4.29-9.54,11.12-16.73,20.31-21.94,8.74-4.96,17.95-6.93,27.69-5.03,10.83,2.12,18.79,8.5,24.62,17.9,4.57,7.37,5.51,15.47,6.15,23.73ZM323.39,281.36c-.33-15.04-8.2-28.54-22.68-32.37-13.61-3.6-30.39,5.81-37.43,17.49-.95,1.58-.05,2.39,1.39,2.86,5.55,1.81,10.76,4.53,16.22,6.47,10.86,3.84,21.47,8.32,32.11,12.66,10.15,4.14,10.42,4.24,10.38-7.11Z"/><path class="cls-1" d="M379.06,112.43c-15.25,2.23-30.55,4.16-45.83,6.17-14.79,1.95-29.6,3.73-44.37,5.89-1.72.25-2.11-.36-2.57-1.87-1.92-6.36-2.24-13-3.58-19.46-.49-2.35,1.29-2.85,2.87-3.41,13.54-4.74,26.9-9.96,40.38-14.84,6.3-2.29,12.39-5.24,18.94-6.86,1.35-.33,2.81-.56,3.79-1.75,3.82-.72,7.53-2.09,11.02-3.51,6-2.44,12.39-3.9,18.15-6.78,11.44-5.71,23.82-8.86,35.64-13.52,12.37-4.87,25.18-8.62,37.78-12.89,1.96-.66,3.82-1.62,5.8-2.23,1.72-.53,2.43-1.66,2.96-3.25,1.73-5.23,1.78-10.38.18-15.68-.63-2.09-1.3-2.12-3.21-1.65-17.97,4.47-35.9,9.16-54.01,12.99-9.02,1.91-17.82,4.63-26.87,6.35-1.77.34-3,.27-3.65-1.68-1.18-3.59-2.78-6.94-5.58-9.65-1.55-1.5-.29-2.1,1.14-2.57,6.75-2.23,13.37-4.98,20.25-6.67,14.59-3.59,29.21-7.27,44.02-9.72C446.63,3.49,460.89.3,475.51,0c2.24-.05,3.36.43,4.34,2.67,2.65,6,5.55,11.92,8.76,17.64,1.03,1.83.3,4.81,2.78,5.46,2.14.56,4.11-1.27,6.01-1.7,0,5.93.13,11.8-.03,17.66-.45,16.35-1.03,32.7-1.52,49.04-.05,1.68-.15,2.68-2.34,3.05-18.69,3.12-37.27,6.99-56.03,9.5-16.34,2.19-32.46,5.79-48.9,7.32-3.21.3-6.36,1.17-9.54,1.78Z"/><path class="cls-1" d="M399.81,163.19c-11.72-1.63-23.58-1.35-35.32-2.63-22.58-2.46-45.24-4.14-67.9-5.61-2.63-.17-3.87-1.21-4.36-3.78-1-5.21-2.18-10.39-3.41-15.55-.53-2.26-.07-3.04,2.48-3.35,15.46-1.87,31.07-2.24,46.5-4.45,14.4-2.06,28.93-2.65,43.4-4.01,1.28-.12,2.54-.49,3.81-.75,8.26-.79,16.53-1.5,24.77-2.4,11.36-1.23,22.81-1.4,34.15-2.92,16.09-2.15,32.34-2.68,48.48-4.29,2.66-.27,2.98.46,2.94,2.77-.29,17.51-1.62,34.97-2.43,52.46-.13,2.76-1.67,2.01-3.09,1.89-11.64-1.02-23.27-2.15-34.91-3.11-16.17-1.33-32.41-1.92-48.54-3.77-2.18-.25-4.38-.33-6.57-.49Z"/><path class="cls-1" d="M558.27,4.44c.85,19.55,1.68,38.85,2.52,58.14.23,5.31.46,10.63.79,15.93.13,2.01-.37,2.91-2.62,3.3-16.85,2.98-33.68,6.08-50.48,9.3-3.27.63-3.22-.93-3.17-3.28.48-21.54.89-43.08,1.34-64.63.02-1.11-.33-2.3,1.3-2.82,16.1-5.18,32.18-10.42,48.28-15.62.49-.16,1.02-.17,2.04-.33Z"/><path class="cls-1" d="M560.43,107.58c-3,8.28-4.27,16.6-6.72,24.64-3.75,12.34-6.91,24.86-10.08,37.37-.89,3.53-2.35,4.76-6.1,4.41-10.98-1.02-21.99-1.69-33-2.37-1.9-.12-2.67-.4-2.54-2.62,1.02-18.24,1.95-36.49,2.76-54.75.1-2.14,1.18-2.13,2.67-2.3,11.87-1.36,23.76-2.34,35.7-2.92,5.65-.27,11.29-.95,17.31-1.47Z"/><path class="cls-1" d="M277.3,123.54c.58,1.58-.19,1.77-1.24,1.9-11.21,1.37-22.42,2.74-33.61,4.22-1.56.21-2.14-.43-2.56-1.64-.21-.61-.37-1.24-.59-1.85-3.45-9.92-3.02-7.2,4.86-10.47,8.57-3.56,17.41-6.56,26.03-10.07,2.49-1.02,3.62-1.37,3.99,2.2.56,5.38,2.07,10.67,3.12,15.72Z"/><path class="cls-1" d="M276.57,134.02c2.14-.59,2.78.59,3.19,2.59.99,4.82,2.11,9.61,3.4,14.36.66,2.42-.35,2.65-2.28,2.44-10.07-1.09-20.13-2.23-30.26-2.56-1.71-.06-2.88-.66-3.65-2.29-.71-1.51-1.9-2.79-2.6-4.3-2.99-6.48-2.47-7.31,4.53-7.9,9.18-.76,18.36-1.54,27.65-2.33Z"/><path class="cls-1" d="M165.37,219.56c-.16,2.06-.32,5.44-.72,8.78-.22,1.82-.86,3.05-3.34,2.06-7.68-3.06-15.42-5.95-23.2-8.73-11.2-4.01-22.04-8.89-33.1-13.21-2.09-.82-2.42-1.83-1.46-3.41,1.13-1.88,2.49-3.63,3.87-5.34,6.48-8.04,14.48-13.52,25.11-14.17,19.44-1.19,33.22,12.71,32.86,34.03Z"/><path class="cls-1" d="M323.39,281.36c.04,11.35-.23,11.25-10.38,7.11-10.65-4.34-21.25-8.82-32.11-12.66-5.47-1.93-10.67-4.66-16.22-6.47-1.45-.47-2.35-1.28-1.39-2.86,7.04-11.68,23.82-21.09,37.43-17.49,14.48,3.83,22.35,17.33,22.68,32.37Z"/></svg>